# xmcd
#
# Track frame offsets: 
#        150
#        13977
#        32290
#        50600
#        70665
#        89265
#        102217
#        123377
#        137457
#        164327
#
# Disc length: 2507 seconds
#
# Revision: 0
# Processed by: cddbd v1.4PL0 Copyright (c) Steve Scherf et al.
# Submitted via: ExactAudioCopy v0.90a11
#
DISCID=7a09c90a
DTITLE=J.T.Lauritsen and The Buckshothunters - My Kind Of Blues
DYEAR=1900
DGENRE=
TTITLE0=Bald headed woman
TTITLE1=She`s gone
TTITLE2=No
TTITLE3=Broken circle
TTITLE4=I`m satisfied with you
TTITLE5=I just love you like i said
TTITLE6=Love detox
TTITLE7=Love don`t love nobody
TTITLE8=Woman down in Texas
TTITLE9=Backdoor man
EXTD=
EXTT0=William Troiani, JT.Lauritsen
EXTT1=William Troiani
EXTT2=Burton Gaar
EXTT3=P.G.Roness/ K.Skevik
EXTT4=Fred Rose
EXTT5=JT.Lauritsen
EXTT6=Chris Cain
EXTT7=William Troiani, JT.Lauritsen
EXTT8=Chris Cain
EXTT9=W.Dixon
PLAYORDER=
